<?xml version="1.0" standalone="no"?>
<!DOCTYPE svg PUBLIC "-//W3C//DTD SVG 20010904//EN"
 "http://www.w3.org/TR/2001/REC-SVG-20010904/DTD/svg10.dtd">
<svg version="1.0" xmlns="http://www.w3.org/2000/svg"
 width="1024.000000pt" height="1021.000000pt" viewBox="0 0 1024.000000 1021.000000"
 preserveAspectRatio="xMidYMid meet">
<metadata>
Created by potrace 1.16, written by Peter Selinger 2001-2019
</metadata>
<g transform="translate(0.000000,1021.000000) scale(0.100000,-0.100000)"
fill="#000000" stroke="none">
<path d="M0 5105 l0 -5105 1113 0 c644 0 1127 4 1147 10 19 5 53 14 75 20 72
19 395 58 493 60 35 0 43 -18 16 -40 -8 -8 -20 -22 -25 -32 -9 -16 -5 -18 45
-18 l55 0 4 38 4 37 1 -37 2 -38 138 0 139 0 51 64 c29 35 60 70 69 77 17 13
4 -6 -62 -94 -32 -43 -31 -47 4 -47 23 0 36 11 72 62 65 94 208 256 286 325
69 62 286 228 446 341 l89 63 66 -39 c98 -58 282 -153 402 -207 125 -56 169
-75 490 -205 508 -205 483 -194 491 -220 4 -14 13 -46 20 -72 10 -35 18 -48
32 -48 12 0 16 4 11 13 -5 8 -2 7 9 -2 24 -19 33 -6 18 26 -11 25 -14 26 -25
11 -10 -14 -15 -8 -30 43 l-17 59 69 113 c167 272 332 579 332 620 1 19 8 14
46 -28 216 -238 419 -557 504 -793 l23 -62 44 0 44 0 -16 30 c-24 47 -21 50
62 50 76 0 76 0 113 -40 l37 -40 1676 0 1677 0 0 5105 0 5105 -5120 0 -5120 0
0 -5105z m4785 2338 c11 -21 49 -87 84 -147 60 -103 63 -110 45 -123 -10 -7
-23 -13 -28 -13 -11 1 -202 278 -195 283 22 18 56 37 64 37 6 0 19 -17 30 -37z
m-51 -167 c53 -79 96 -147 96 -150 0 -10 -53 -55 -65 -55 -11 -1 -185 289
-185 306 0 10 38 41 52 42 4 1 50 -64 102 -143z m2057 64 c52 -28 75 -129 85
-365 7 -177 -16 -542 -40 -630 -28 -107 -99 -222 -173 -285 -35 -29 -42 -31
-93 -25 -70 7 -144 29 -249 72 -144 59 -171 87 -171 170 l0 35 48 -34 c62 -44
124 -73 193 -88 57 -13 168 -10 204 5 13 6 10 0 -10 -17 -22 -19 -27 -30 -19
-38 28 -29 215 141 229 208 4 15 11 36 17 46 8 15 7 22 -4 30 -8 6 -24 62 -36
126 -13 63 -38 161 -57 218 -19 57 -35 105 -35 107 0 1 7 2 16 1 28 -2 27 22
-2 49 -39 37 -120 58 -174 46 -57 -13 -142 -71 -224 -154 -61 -62 -68 -67 -63
-41 13 60 18 211 9 272 l-9 63 81 38 c45 20 129 67 188 104 147 91 233 117
289 87z m-1211 -129 c30 -6 91 -19 135 -27 44 -9 118 -26 165 -39 47 -13 118
-29 158 -35 l72 -12 2 -36 c1 -21 0 -83 -1 -139 -2 -69 0 -103 7 -103 17 0 27
66 27 177 0 89 2 103 17 107 27 7 32 -11 36 -124 4 -118 -12 -229 -54 -357
-37 -114 -54 -213 -54 -310 l0 -85 -32 6 c-86 16 -147 18 -182 6 -49 -16 -54
-8 -22 30 36 43 24 55 -24 25 -53 -33 -57 -31 -24 9 33 40 74 104 74 116 0 4
-9 10 -19 13 -14 3 -22 17 -26 43 -14 87 -56 253 -81 319 -43 114 -43 127 -4
103 31 -20 36 0 6 31 -37 38 -126 81 -185 88 -106 12 -290 -57 -465 -175 -176
-118 -310 -261 -384 -408 -17 -34 -42 -74 -56 -91 l-25 -29 47 -40 c133 -115
244 -167 412 -194 114 -18 171 -5 110 27 -18 9 -3 10 76 6 54 -3 142 0 193 6
52 6 97 9 98 7 2 -2 -22 -30 -54 -63 l-58 -60 -105 -11 c-58 -6 -154 -16 -215
-22 -107 -10 -180 -28 -234 -56 -16 -9 -59 -14 -117 -14 -305 0 -475 206 -425
515 28 171 99 287 299 485 203 201 325 278 517 324 35 9 338 -2 395 -13z
m-2192 -241 c102 -54 190 -157 251 -293 48 -106 48 -107 9 -107 -19 0 -58 -11
-86 -25 -65 -32 -72 -31 -106 4 -38 39 -145 87 -240 107 -131 27 -232 -3 -334
-100 -58 -55 -105 -136 -116 -201 -6 -37 -5 -39 9 -21 8 11 15 24 15 28 0 28
50 110 97 159 67 70 132 100 228 107 110 7 258 -41 327 -105 l26 -25 -61 -47
c-222 -170 -299 -448 -186 -669 22 -42 106 -129 115 -119 3 3 -13 29 -35 58
-59 78 -83 147 -89 255 -9 182 74 346 234 460 146 104 226 112 301 30 35 -39
42 -54 46 -98 2 -29 13 -102 25 -163 44 -237 45 -256 21 -289 -13 -17 -38 -59
-56 -95 -66 -126 -157 -220 -285 -295 -50 -29 -64 -52 -25 -41 60 19 130 67
207 145 69 69 94 102 129 174 54 111 58 104 62 -97 3 -166 3 -167 -83 -239
-76 -63 -94 -73 -194 -104 -120 -37 -281 -39 -394 -4 -220 66 -369 201 -454
409 -61 150 -94 443 -65 583 38 189 68 279 125 381 45 79 67 105 144 169 109
92 156 109 285 105 80 -3 97 -7 153 -37z m2237 -13 c17 -13 16 -16 -15 -63
-47 -69 -119 -164 -147 -195 l-25 -27 -77 52 c-42 28 -98 62 -124 76 -26 14
-46 29 -44 35 5 15 140 85 215 111 77 27 187 32 217 11z m950 -25 c40 -29 39
-38 -10 -162 -26 -66 -51 -120 -54 -120 -12 0 -173 138 -172 146 2 18 145 123
180 132 47 13 45 13 56 4z m-859 -147 c39 -95 95 -379 79 -405 -4 -7 -34 14
-79 57 -39 38 -95 90 -125 115 -50 43 -53 48 -40 66 8 11 43 61 79 111 36 50
66 91 68 91 2 0 10 -16 18 -35z m1908 -5 c42 -25 90 -86 104 -130 27 -87 42
-199 32 -252 -33 -177 -87 -277 -295 -548 -90 -118 -298 -337 -362 -381 -72
-50 -144 -83 -153 -70 -4 7 -13 56 -20 110 -17 129 -10 144 63 135 35 -4 71
-1 111 11 60 17 131 54 122 62 -3 3 -38 -5 -78 -17 -47 -14 -92 -20 -128 -18
l-55 3 -7 62 c-9 79 -25 110 -97 181 -32 31 -61 67 -65 78 -4 13 4 49 22 95
16 41 46 122 67 182 32 91 43 113 77 142 48 41 97 64 203 98 124 39 152 41
181 10 71 -76 92 -271 45 -403 -30 -82 -63 -149 -109 -217 -43 -65 -33 -83 15
-28 73 84 132 212 154 334 16 91 -1 203 -42 280 -16 30 -27 56 -24 59 2 2 34
1 71 -3 45 -5 86 -17 130 -40 42 -22 66 -30 70 -23 9 15 -29 45 -96 77 -49 23
-67 25 -165 25 -127 0 -299 -37 -373 -81 -24 -13 -46 -22 -49 -19 -3 3 0 18 6
35 22 51 247 193 377 237 112 38 221 44 268 14z m-2447 -88 c143 -85 173 -105
173 -120 0 -14 -291 -309 -331 -335 -25 -16 -30 -16 -145 24 -152 53 -155 55
-125 116 48 99 116 191 208 281 52 50 101 92 108 92 7 0 58 -26 112 -58z
m1523 -23 c32 -118 53 -240 43 -249 -4 -5 -41 27 -81 71 -83 89 -81 74 -26
197 15 34 31 62 35 62 4 0 17 -36 29 -81z m-344 -35 c43 -36 83 -74 88 -84 6
-14 -3 -36 -39 -92 -59 -91 -113 -158 -127 -158 -17 0 -127 73 -133 88 -6 17
19 147 41 202 21 54 60 110 78 110 7 0 48 -30 92 -66z m-1954 29 c-66 -126
-84 -192 -89 -334 -3 -89 -1 -118 16 -169 25 -74 71 -150 114 -186 71 -60 239
-124 324 -124 24 0 43 -3 43 -7 0 -5 -11 -30 -25 -58 -48 -98 -22 -204 62
-257 100 -61 225 -123 271 -133 17 -3 32 -10 32 -15 0 -11 -144 -263 -239
-419 l-45 -75 -8 35 c-4 19 -12 59 -17 89 -6 30 -19 98 -30 150 -19 89 -23 97
-63 133 -64 56 -232 176 -326 232 -46 28 -91 58 -101 67 -27 24 -154 104 -178
112 -22 7 -21 5 -43 251 -11 128 -35 304 -57 418 l-17 89 25 19 c62 47 326
196 352 198 4 1 4 -7 -1 -16z m1172 -258 c58 -53 111 -105 117 -116 14 -27 3
-40 -74 -77 -73 -36 -232 -57 -350 -47 -133 11 -132 1 -8 131 61 63 128 135
148 160 21 24 43 44 49 44 7 0 60 -43 118 -95z m1040 -16 c36 -40 66 -77 66
-84 0 -7 -30 -27 -66 -45 -60 -29 -73 -32 -139 -28 -41 2 -77 6 -80 10 -9 9
126 217 141 218 6 0 41 -32 78 -71z m-451 -274 c156 -50 182 -69 82 -60 -129
13 -328 9 -435 -7 -58 -9 -109 -12 -113 -8 -8 7 97 50 122 50 6 0 22 7 34 15
52 33 220 39 310 10z m-83 -121 c6 -14 10 -55 10 -92 0 -68 11 -105 25 -83 9
16 10 128 0 170 -5 25 -4 32 6 29 24 -8 41 -81 41 -178 0 -77 -6 -116 -32
-205 -54 -188 -68 -250 -75 -349 -7 -85 -5 -96 9 -96 12 0 16 -10 16 -42 0
-68 34 -248 64 -343 l15 -50 -19 25 c-27 35 -25 15 9 -110 55 -201 113 -342
144 -348 21 -4 21 10 3 51 -18 40 -46 108 -46 113 0 2 5 4 10 4 6 0 10 -6 10
-14 0 -17 135 -265 155 -285 32 -32 19 1 -79 213 -161 343 -216 576 -216 905
l0 179 45 133 c43 126 46 141 46 244 1 61 0 116 -2 124 -3 11 20 13 126 12
268 -4 403 -34 485 -108 64 -58 83 -100 78 -174 -4 -48 -10 -65 -34 -90 -70
-74 -179 -98 -366 -81 -116 11 -144 9 -134 -7 10 -15 164 -90 210 -102 36 -9
50 -18 57 -38 6 -14 31 -69 56 -121 55 -117 69 -147 128 -280 68 -153 95 -211
207 -450 69 -147 131 -318 184 -510 14 -50 19 -101 18 -221 0 -166 -2 -177
-62 -341 l-35 -98 -41 0 c-23 0 -101 -9 -175 -20 -101 -15 -138 -17 -148 -8
-11 9 -17 6 -29 -11 -22 -31 -44 -10 -44 43 0 30 -3 37 -10 26 -5 -8 -10 -32
-10 -52 0 -21 -4 -38 -9 -38 -4 0 -11 48 -14 108 -8 143 -32 259 -95 457 -38
121 -57 165 -72 165 -13 0 -13 -36 1 -62 17 -32 61 -198 55 -211 -2 -7 -5 -4
-5 6 -1 9 -5 25 -10 35 -13 26 -111 261 -111 267 0 13 -91 145 -101 145 -16 0
2 -46 119 -315 85 -195 137 -395 144 -555 l3 -65 -85 -17 c-47 -9 -106 -19
-131 -23 l-47 -7 -17 46 c-22 58 -34 59 -28 2 l5 -44 -38 -6 c-201 -30 -372
-40 -759 -41 -225 -1 -421 -5 -434 -8 -13 -4 -47 -13 -75 -21 -138 -39 -149
-39 -216 -2 -69 37 -137 99 -182 163 -72 106 -131 270 -144 408 -16 160 75
461 203 673 100 164 348 583 422 712 98 170 119 197 161 204 20 3 63 19 95 34
33 16 83 37 110 47 28 10 70 30 95 43 25 14 62 35 83 46 81 44 30 47 -140 10
-244 -54 -501 -26 -606 66 -34 31 -40 42 -44 87 -4 41 -1 61 17 95 33 64 58
88 128 120 53 24 88 31 210 43 81 8 183 19 227 25 44 5 148 17 230 25 154 16
311 33 355 39 73 10 90 7 100 -20z m805 -485 c6 -42 4 -54 -8 -61 -9 -4 -25
-23 -36 -41 -18 -30 -19 -44 -14 -162 5 -120 4 -128 -11 -110 -8 11 -16 23
-16 27 0 3 -16 41 -35 82 -19 42 -35 79 -35 84 0 4 -6 18 -13 32 -22 44 -49
121 -44 126 3 3 34 12 69 20 35 8 77 23 93 34 17 10 33 19 37 19 3 1 9 -22 13
-50z m-2527 -136 c13 -72 92 -264 192 -469 49 -99 100 -209 114 -243 29 -67
29 -64 -22 -145 -31 -51 -42 -35 -42 64 -1 88 12 57 -281 709 -34 74 -63 140
-66 148 -4 10 14 4 48 -16 30 -17 55 -38 57 -48z m-1407 2 c39 -21 69 -71 69
-116 0 -69 -92 -129 -165 -107 -55 17 -70 41 -69 108 1 64 11 82 59 112 37 22
67 23 106 3z m1015 -1611 c23 -39 28 -42 95 -54 52 -10 72 -11 78 -2 5 8 15 6
34 -7 15 -9 25 -20 23 -22 -4 -3 -301 16 -313 20 -6 2 -2 138 4 144 10 10 51
-31 79 -79z m61 -123 c15 -1 32 -15 47 -38 14 -21 36 -51 51 -68 l26 -30 -6
62 c-6 60 -5 63 18 68 14 4 38 5 53 3 28 -3 29 -4 32 -71 3 -62 5 -69 28 -77
14 -6 51 -10 83 -10 32 0 65 -6 76 -13 38 -28 18 -28 -295 3 -58 6 -140 16
-182 22 l-78 11 0 72 c0 39 2 74 5 76 2 3 30 2 62 -2 32 -4 68 -8 80 -8z m131
-210 c86 -7 102 -15 102 -57 0 -12 10 -32 23 -46 21 -22 33 -25 132 -31 73 -5
114 -12 123 -21 16 -16 8 -38 -11 -31 -7 3 -77 9 -158 14 -80 5 -176 15 -215
22 -60 11 -75 18 -119 58 -27 26 -68 61 -90 80 l-40 33 85 -7 c47 -4 122 -10
168 -14z m3021 -120 c69 -65 31 -86 -229 -125 -187 -29 -307 -57 -451 -106
-81 -27 -180 -56 -220 -65 -112 -25 -369 -31 -502 -11 -59 9 -130 16 -157 16
-27 0 -71 4 -97 10 -26 5 -136 17 -243 25 -107 9 -238 22 -290 29 l-95 12 70
21 c119 37 218 44 540 37 263 -5 326 -4 510 15 371 37 407 42 580 77 165 34
409 79 470 87 70 9 83 7 114 -22z m-2936 -76 c32 -8 71 -15 87 -15 21 0 48
-17 100 -61 75 -65 107 -77 200 -79 41 -1 80 -17 80 -34 0 -9 -51 -7 -107 3
-26 5 -103 15 -171 22 -108 11 -125 15 -151 38 -16 14 -40 34 -54 43 -13 9
-39 35 -57 58 -32 40 -32 40 -8 40 13 0 50 -7 81 -15z m2881 -101 c26 -67 -31
-143 -141 -186 -149 -59 -278 -78 -574 -85 -164 -4 -247 -2 -271 6 -21 7 -179
15 -399 21 -355 9 -431 15 -534 44 -57 16 -185 62 -193 71 -9 9 61 -7 83 -19
13 -7 100 -11 240 -12 121 -1 258 -7 305 -13 46 -6 116 -11 155 -12 38 0 91
-4 117 -8 62 -10 336 12 413 34 33 9 89 21 125 25 36 5 99 17 140 26 41 9 95
20 120 24 153 29 215 47 278 80 47 24 127 27 136 4z m-2626 -108 c80 -11 98
-17 125 -43 91 -84 163 -122 236 -124 20 0 52 -7 71 -15 32 -12 24 -13 -90 -9
-135 6 -369 33 -385 46 -6 4 -17 25 -24 46 -8 21 -27 55 -43 76 -30 37 -30 37
-6 37 12 -1 65 -7 116 -14z m-428 -178 c-6 -73 -15 -149 -20 -168 -5 -19 -14
-62 -21 -95 -6 -33 -21 -94 -31 -135 -11 -41 -24 -93 -30 -115 -23 -95 -115
-341 -125 -332 -1 2 10 43 26 93 108 335 167 579 191 787 7 59 15 105 17 103
3 -2 0 -64 -7 -138z m153 63 c23 -28 25 -36 31 -228 3 -109 9 -263 12 -343 l6
-145 -67 -115 c-114 -197 -277 -507 -461 -876 -104 -211 -129 -253 -152 -262
-15 -6 -61 -23 -102 -38 -41 -15 -80 -32 -87 -37 -8 -5 -20 -3 -35 7 -12 9
-18 16 -12 16 6 0 47 51 91 112 70 99 115 171 214 344 13 23 56 95 95 160 39
66 98 166 131 224 33 58 89 152 124 210 50 81 67 120 76 170 20 103 51 393 74
670 6 74 12 141 14 148 7 19 21 14 48 -17z m572 -111 c61 -5 129 -16 151 -24
75 -26 204 -96 204 -110 0 -22 -76 -30 -224 -22 -153 8 -373 31 -398 41 -10 4
-23 26 -30 49 -6 22 -15 45 -20 51 -4 5 -8 18 -8 30 0 21 1 21 108 8 59 -7
157 -17 217 -23z m15 -186 c112 -9 232 -14 266 -11 l63 6 -6 -72 c-3 -40 -11
-76 -17 -80 -6 -4 -33 -5 -61 -3 -27 3 -121 8 -208 12 -87 3 -183 12 -214 18
l-56 11 -18 55 c-10 30 -18 65 -18 77 -1 19 2 21 32 13 17 -5 124 -16 237 -26z
m10 -184 c96 -5 201 -10 233 -10 l58 0 -6 -57 c-4 -32 -10 -61 -14 -64 -8 -7
-349 6 -412 16 -45 7 -46 8 -62 61 -22 72 -22 78 6 70 12 -4 101 -11 197 -16z
m125 -168 l130 -7 -1 -38 c-1 -21 -6 -43 -13 -50 -12 -12 -173 -13 -304 -2
-85 8 -89 11 -104 89 l-6 29 84 -7 c46 -4 143 -11 214 -14z m110 -177 c-3 -21
-8 -42 -11 -44 -7 -7 -331 -8 -337 -1 -3 3 -8 24 -12 48 l-7 43 187 -3 187 -3
-7 -40z m-2027 -632 c-29 -86 -58 -131 -96 -153 -18 -11 -32 -26 -29 -33 2 -6
35 -38 73 -69 75 -62 201 -179 169 -157 -44 30 -208 174 -324 285 l-74 71 38
35 c28 26 54 38 99 47 34 7 77 16 96 21 71 16 71 17 48 -47z m3401 38 c20 -11
57 -36 81 -56 23 -19 54 -44 68 -55 l24 -20 -22 -60 c-12 -33 -26 -60 -30 -60
-16 0 -89 61 -144 120 -53 58 -86 111 -86 140 0 17 68 11 109 -9z m-3615 -242
c31 -25 33 -38 6 -67 -15 -16 -25 -19 -43 -13 -49 18 -86 -26 -74 -88 8 -36
-28 -74 -200 -213 -137 -110 -242 -202 -366 -321 -42 -40 -98 -89 -123 -107
-43 -30 -45 -31 -34 -9 19 36 67 96 145 179 38 42 89 103 111 135 163 235 216
316 210 322 -4 4 -72 -25 -152 -65 -79 -40 -147 -72 -151 -72 -15 0 96 64 216
125 69 36 146 77 171 91 75 44 232 124 245 124 7 0 24 -9 39 -21z m750 -391
c-4 -7 -23 -37 -42 -66 l-34 -54 16 -66 c17 -73 56 -250 59 -268 2 -9 -168
-194 -178 -194 -3 0 -18 399 -19 499 l-1 83 90 38 c97 41 121 47 109 28z"/>
<path d="M6435 5850 c-13 -22 9 -30 80 -30 134 0 225 -51 225 -126 0 -36 8
-42 28 -22 21 21 14 74 -15 109 -46 55 -113 79 -220 79 -51 0 -95 -4 -98 -10z"/>
<path d="M5110 5827 c-75 -27 -117 -52 -131 -79 -8 -14 -6 -20 7 -25 9 -3 19
-1 23 5 13 21 121 62 193 73 52 8 91 8 145 0 93 -14 93 -14 93 3 0 23 -59 38
-165 42 -86 4 -109 1 -165 -19z"/>
<path d="M6428 5785 c-89 -24 -180 -108 -236 -217 -20 -41 -27 -71 -30 -130
-3 -53 -1 -78 7 -78 6 0 11 17 11 38 0 43 42 140 65 148 8 3 15 12 15 20 0 29
53 43 141 37 102 -7 221 10 266 38 98 61 18 160 -128 158 -35 0 -85 -7 -111
-14z"/>
<path d="M5265 5774 c-172 -44 -206 -142 -70 -200 51 -22 226 -22 340 0 104
21 128 20 174 -4 62 -31 131 -128 131 -184 0 -32 10 -56 22 -56 7 0 9 23 6 64
-7 84 -44 153 -128 236 l-65 65 48 -28 c27 -16 51 -26 54 -23 10 10 -35 51
-81 74 -49 25 -72 28 -78 10 -3 -8 -26 -4 -78 16 -72 26 -224 43 -275 30z"/>
</g>
</svg>
